<?xml version="1.0" encoding="utf-8"?>
<!-- Generator: Adobe Illustrator 19.1.1, SVG Export Plug-In . SVG Version: 6.00 Build 0)  -->
<svg version="1.1" id="Layer_1" xmlns="http://www.w3.org/2000/svg" xmlns:xlink="http://www.w3.org/1999/xlink" x="0px" y="0px"
	 viewBox="0 0 1200 1200" enable-background="new 0 0 1200 1200" xml:space="preserve">
<g>
	<g>
		<g>
			<g>
				<path fill="#FFFFFF" d="M445.095,1009.142h329.719h329.719c11.302,0,20.468-4.581,26.151-11.988
					c5.683-7.407,7.882-17.639,5.251-28.941l-76.749-329.719l-76.749-329.719c-2.631-11.302-9.594-21.534-18.724-28.941
					c-9.131-7.407-20.429-11.988-31.731-11.988H602.262H272.543c-11.302,0-20.468,4.581-26.151,11.988
					c-5.683,7.407-7.882,17.639-5.251,28.941l76.749,329.719l76.749,329.719c2.631,11.302,9.594,21.534,18.724,28.941
					C422.495,1004.561,433.793,1009.142,445.095,1009.142z"/>
				<path fill="#2E4C59" d="M1104.536,1022.127h-329.72h-329.72c-14.364,0-28.476-5.597-39.829-14.767
					c-11.353-9.17-19.946-21.913-23.273-36.204l-76.748-329.719l-76.748-329.719c-1.729-7.429-1.862-14.82-0.493-21.701
					s4.241-13.251,8.521-18.641c4.227-5.325,9.539-9.453,15.64-12.251c6.101-2.797,12.992-4.264,20.376-4.264h329.72h329.72
					c14.367,0,28.479,5.597,39.83,14.767s19.942,21.913,23.266,36.204l76.751,329.717l76.751,329.717
					c1.729,7.429,1.862,14.82,0.493,21.701s-4.241,13.252-8.521,18.641c-4.227,5.325-9.539,9.454-15.64,12.252
					C1118.81,1020.66,1111.92,1022.127,1104.536,1022.127z M272.542,280.827c-3.342,0-6.405,0.595-9.061,1.729
					c-2.656,1.134-4.905,2.808-6.619,4.965c-1.831,2.304-3.019,5.081-3.54,8.183s-0.375,6.528,0.461,10.129l76.748,329.717
					l76.748,329.717c1.95,8.373,7.254,16.096,14.146,21.725c6.892,5.63,15.371,9.166,23.67,9.166h329.72h329.72
					c3.342,0,6.405-0.595,9.061-1.729c2.656-1.134,4.905-2.808,6.619-4.965c1.831-2.304,3.019-5.081,3.54-8.183
					c0.521-3.102,0.375-6.528-0.462-10.129l-76.751-329.717l-76.751-329.717c-1.95-8.373-7.253-16.095-14.144-21.725
					c-6.891-5.63-15.368-9.166-23.667-9.166h-329.72H272.542z"/>
			</g>
			<g>
				<path fill="#ABE1ED" d="M274.356,451.468h370.648h370.648l-16.608-71.347l-16.608-71.347
					c-2.631-11.302-9.594-21.534-18.724-28.941c-9.131-7.407-20.429-11.988-31.731-11.988H602.262H272.543
					c-11.302,0-20.468,4.581-26.151,11.988c-5.683,7.407-7.882,17.639-5.251,28.941l16.608,71.347L274.356,451.468z"/>
				<path fill="#2E4C59" d="M1015.652,464.452H645.005H274.357c-3.017,0-5.836-1.04-8.071-2.815
					c-2.235-1.775-3.887-4.285-4.572-7.223l-16.608-71.347l-16.608-71.347c-1.729-7.429-1.862-14.82-0.493-21.701
					s4.241-13.251,8.521-18.641c4.227-5.325,9.539-9.453,15.64-12.251c6.101-2.797,12.992-4.264,20.376-4.264h329.72h329.72
					c14.367,0,28.479,5.597,39.83,14.767s19.942,21.913,23.266,36.204l16.608,71.346l16.608,71.346
					c0.449,1.93,0.446,3.908,0.023,5.792s-1.266,3.673-2.498,5.225c-1.232,1.551-2.784,2.778-4.523,3.617
					C1019.558,464,1017.632,464.452,1015.652,464.452z M284.667,438.487h357.318h357.318l-14.755-63.384l-14.755-63.384
					c-1.95-8.373-7.253-16.095-14.144-21.725c-6.891-5.63-15.368-9.166-23.667-9.166h-329.72h-329.72
					c-3.342,0-6.405,0.595-9.061,1.729c-2.656,1.134-4.905,2.808-6.619,4.965c-1.831,2.304-3.019,5.081-3.54,8.183
					s-0.375,6.528,0.461,10.129l15.442,66.327L284.667,438.487z"/>
			</g>
		</g>
		<g>
			<g>
				<path fill="#FFFFFF" d="M445.095,1009.142h329.719h329.719c11.302,0,20.468-4.581,26.151-11.988
					c5.683-7.407,7.882-17.639,5.251-28.941l-76.749-329.719l-76.749-329.719c-2.631-11.302-9.594-21.534-18.724-28.941
					c-9.131-7.407-20.429-11.988-31.731-11.988H602.262H272.543c-11.302,0-20.468,4.581-26.151,11.988
					c-5.683,7.407-7.882,17.639-5.251,28.941l76.749,329.719l76.749,329.719c2.631,11.302,9.594,21.534,18.724,28.941
					C422.495,1004.561,433.793,1009.142,445.095,1009.142z"/>
				<path fill="#2E4C59" d="M1104.536,1022.127h-329.72h-329.72c-14.364,0-28.476-5.597-39.829-14.767
					c-11.353-9.17-19.946-21.913-23.273-36.204l-76.748-329.719l-76.748-329.719c-1.729-7.429-1.862-14.82-0.493-21.701
					s4.241-13.251,8.521-18.641c4.227-5.325,9.539-9.453,15.64-12.251c6.101-2.797,12.992-4.264,20.376-4.264h329.72h329.72
					c14.367,0,28.479,5.597,39.83,14.767s19.942,21.913,23.266,36.204l76.751,329.717l76.751,329.717
					c1.729,7.429,1.862,14.82,0.493,21.701s-4.241,13.252-8.521,18.641c-4.227,5.325-9.539,9.454-15.64,12.252
					C1118.81,1020.66,1111.92,1022.127,1104.536,1022.127z M272.542,280.827c-3.342,0-6.405,0.595-9.061,1.729
					c-2.656,1.134-4.905,2.808-6.619,4.965c-1.831,2.304-3.019,5.081-3.54,8.183s-0.375,6.528,0.461,10.129l76.748,329.717
					l76.748,329.717c1.95,8.373,7.254,16.096,14.146,21.725c6.892,5.63,15.371,9.166,23.67,9.166h329.72h329.72
					c3.342,0,6.405-0.595,9.061-1.729c2.656-1.134,4.905-2.808,6.619-4.965c1.831-2.304,3.019-5.081,3.54-8.183
					c0.521-3.102,0.375-6.528-0.462-10.129l-76.751-329.717l-76.751-329.717c-1.95-8.373-7.253-16.095-14.144-21.725
					c-6.891-5.63-15.368-9.166-23.667-9.166h-329.72H272.542z"/>
			</g>
			<g>
				<path fill="#ABE1ED" d="M274.356,451.468h370.648h370.648l-16.608-71.347l-16.608-71.347
					c-2.631-11.302-9.594-21.534-18.724-28.941c-9.131-7.407-20.429-11.988-31.731-11.988H602.262H272.543
					c-11.302,0-20.468,4.581-26.151,11.988c-5.683,7.407-7.882,17.639-5.251,28.941l16.608,71.347L274.356,451.468z"/>
				<path fill="#2E4C59" d="M1015.652,464.452H645.005H274.357c-3.017,0-5.836-1.04-8.071-2.815
					c-2.235-1.775-3.887-4.285-4.572-7.223l-16.608-71.347l-16.608-71.347c-1.729-7.429-1.862-14.82-0.493-21.701
					s4.241-13.251,8.521-18.641c4.227-5.325,9.539-9.453,15.64-12.251c6.101-2.797,12.992-4.264,20.376-4.264h329.72h329.72
					c14.367,0,28.479,5.597,39.83,14.767s19.942,21.913,23.266,36.204l16.608,71.346l16.608,71.346
					c0.449,1.93,0.446,3.908,0.023,5.792s-1.266,3.673-2.498,5.225c-1.232,1.551-2.784,2.778-4.523,3.617
					C1019.558,464,1017.632,464.452,1015.652,464.452z M284.667,438.487h357.318h357.318l-14.755-63.384l-14.755-63.384
					c-1.95-8.373-7.253-16.095-14.144-21.725c-6.891-5.63-15.368-9.166-23.667-9.166h-329.72h-329.72
					c-3.342,0-6.405,0.595-9.061,1.729c-2.656,1.134-4.905,2.808-6.619,4.965c-1.831,2.304-3.019,5.081-3.54,8.183
					s-0.375,6.528,0.461,10.129l15.442,66.327L284.667,438.487z"/>
			</g>
		</g>
		<g>
			<polyline fill="#2E4C59" points="965.099,451.468 1031.252,727.252 1097.406,1003.036 			"/>
			<path fill="#2E4C59" d="M1097.396,1016.021c-2.934,0-5.73-1-7.972-2.745c-2.241-1.745-3.928-4.234-4.64-7.212l-66.154-275.783
				l-66.154-275.783c-0.837-3.485-0.181-6.98,1.555-9.813s4.553-5.003,8.04-5.84c3.469-0.842,6.964-0.187,9.801,1.551
				c2.837,1.738,5.015,4.558,5.849,8.047l66.154,275.783l66.154,275.783c0.837,3.485,0.181,6.98-1.555,9.813
				c-1.736,2.833-4.553,5.003-8.04,5.84c-0.507,0.122-1.016,0.212-1.523,0.271S1097.898,1016.021,1097.396,1016.021z"/>
		</g>
		<g>
			<g>
				<polyline fill="#2E4C59" points="936.456,451.468 958.79,730.305 981.124,1009.142 				"/>
				<path fill="#2E4C59" d="M981.107,1022.127c-3.35,0-6.446-1.289-8.772-3.427c-2.326-2.138-3.883-5.125-4.155-8.521
					l-22.334-278.836l-22.334-278.836c-0.286-3.574,0.903-6.925,3.057-9.455c2.155-2.53,5.275-4.237,8.85-4.524
					c3.527-0.271,6.879,0.918,9.42,3.068c2.541,2.151,4.272,5.262,4.556,8.836l22.334,278.836l22.334,278.836
					c0.286,3.574-0.903,6.925-3.057,9.455c-2.155,2.529-5.275,4.236-8.85,4.522c-0.175,0.015-0.35,0.027-0.525,0.034
					C981.457,1022.123,981.282,1022.127,981.107,1022.127z"/>
			</g>
			<g>
				<polyline fill="#2E4C59" points="943.826,451.468 995.123,730.305 1046.42,1009.142 				"/>
				<path fill="#2E4C59" d="M1046.404,1022.127c-3.071,0-5.971-1.095-8.248-2.972s-3.93-4.536-4.506-7.665l-51.296-278.836
					l-51.296-278.836c-0.649-3.526,0.193-6.981,2.079-9.716c1.886-2.736,4.816-4.752,8.343-5.401c3.507-0.642,6.962,0.2,9.702,2.084
					c2.74,1.884,4.766,4.81,5.415,8.337l51.296,278.836l51.296,278.836c0.649,3.526-0.193,6.981-2.079,9.716
					c-1.886,2.735-4.816,4.751-8.343,5.399c-0.396,0.074-0.791,0.128-1.185,0.164S1046.795,1022.127,1046.404,1022.127z"/>
			</g>
			<g>
				<polyline fill="#2E4C59" points="917.942,1009.142 921.739,739.579 925.537,470.017 				"/>
				<path fill="#2E4C59" d="M917.949,1022.127c-0.033,0-0.065-0.001-0.096-0.003c-0.031-0.001-0.061-0.003-0.092-0.003
					c-3.585-0.051-6.811-1.549-9.127-3.931s-3.724-5.647-3.673-9.231l3.796-269.562l3.796-269.562
					c0.051-3.554,1.524-6.754,3.87-9.065c2.346-2.312,5.565-3.735,9.107-3.735c0.033,0,0.065,0,0.096,0s0.062,0,0.092,0
					c3.585,0.051,6.811,1.55,9.127,3.932c2.316,2.383,3.724,5.648,3.673,9.233l-3.796,269.562l-3.796,269.562
					c-0.051,3.554-1.524,6.754-3.87,9.066C924.711,1020.703,921.492,1022.127,917.949,1022.127z"/>
			</g>
			<g>
				<polyline fill="#2E4C59" points="861.31,1009.142 886.359,784.717 911.407,560.292 				"/>
				<path fill="#2E4C59" d="M861.324,1022.127c-0.241,0-0.482-0.008-0.724-0.022c-0.242-0.014-0.486-0.034-0.732-0.06
					c-3.563-0.398-6.627-2.203-8.701-4.799c-2.074-2.596-3.158-5.983-2.76-9.545l25.049-224.425l25.049-224.425
					c0.398-3.563,2.192-6.631,4.782-8.707s5.976-3.16,9.559-2.754c3.563,0.397,6.627,2.201,8.701,4.796
					c2.074,2.596,3.158,5.982,2.76,9.545l-25.049,224.426l-25.049,224.425c-0.37,3.318-1.96,6.204-4.273,8.261
					S864.587,1022.127,861.324,1022.127z"/>
			</g>
		</g>
	</g>
	<g opacity="0.35">
		<path fill="#2E4C59" d="M278.251,297.368h307.772h307.772c10.55,0,21.096,4.276,29.619,11.19s15.022,16.465,17.478,27.015
			l4.225,18.152l4.225,18.152l0,0l0,0l11.277,48.446l11.277,48.446l0,0l0,0l56.138,241.174l56.138,241.174
			c2.456,10.55,0.403,20.101-4.902,27.015c-5.304,6.914-13.86,11.19-24.41,11.19H747.09H439.318c-10.55,0-21.096-4.276-29.619-11.19
			c-8.523-6.914-15.022-16.465-17.478-27.015l-71.64-307.772l-71.64-307.772c-2.456-10.55-0.403-20.101,4.902-27.015
			S267.701,297.368,278.251,297.368z"/>
		<path fill="#2E4C59" d="M1054.863,1002.303H747.091H439.32c-13.601,0-26.963-5.298-37.711-13.977
			c-10.749-8.679-18.884-20.74-22.033-34.266l-71.639-307.773l-71.639-307.773c-1.646-7.062-1.771-14.09-0.466-20.637
			c1.305-6.547,4.041-12.612,8.118-17.747c4.029-5.078,9.09-9.014,14.901-11.681c5.811-2.667,12.372-4.065,19.401-4.065h307.771
			h307.771c13.604,0,26.965,5.298,37.712,13.978c10.747,8.68,18.88,20.741,22.027,34.267l71.642,307.771l71.641,307.771
			c1.643,7.064,1.767,14.094,0.461,20.641c-1.306,6.547-4.042,12.612-8.119,17.748c-4.032,5.075-9.091,9.01-14.901,11.677
			C1068.45,1000.906,1061.892,1002.303,1054.863,1002.303z M278.252,310.349c-2.987,0-5.72,0.526-8.086,1.53
			c-2.366,1.004-4.364,2.485-5.88,4.396c-1.623,2.044-2.674,4.517-3.132,7.287c-0.458,2.77-0.322,5.836,0.429,9.065L333.222,640.4
			l71.639,307.773c1.777,7.633,6.612,14.675,12.892,19.808c6.28,5.133,14.006,8.358,21.567,8.358h307.771h307.771
			c2.984,0,5.717-0.526,8.082-1.53c2.365-1.003,4.363-2.484,5.88-4.394c1.623-2.045,2.675-4.52,3.134-7.291
			c0.459-2.771,0.325-5.838-0.426-9.067l-71.641-307.771l-71.641-307.771c-1.777-7.633-6.61-14.675-12.889-19.808
			c-6.279-5.133-14.004-8.358-21.565-8.358H586.024H278.252z"/>
	</g>
	<g>
		<g>
			<path fill="#FFFFFF" d="M754.904,1009.142H425.185H95.465c-11.302,0-20.468-4.581-26.151-11.988
				c-5.683-7.407-7.882-17.639-5.251-28.941l76.749-329.719l76.749-329.719c2.631-11.302,9.594-21.534,18.724-28.941
				c9.131-7.407,20.429-11.988,31.731-11.988h329.719h329.719c11.302,0,20.468,4.581,26.151,11.988
				c5.683,7.407,7.882,17.639,5.251,28.941l-76.749,329.719L805.36,968.213c-2.631,11.302-9.594,21.534-18.724,28.941
				C777.505,1004.561,766.206,1009.142,754.904,1009.142z"/>
			<path fill="#2E4C59" d="M754.904,1022.127h-329.72H95.464c-7.384,0-14.274-1.467-20.376-4.265
				c-6.101-2.798-11.413-6.927-15.64-12.252c-4.28-5.389-7.152-11.76-8.521-18.641c-1.369-6.88-1.236-14.271,0.493-21.699
				l76.748-329.72l76.748-329.72c3.327-14.291,11.92-27.033,23.273-36.202c11.353-9.169,25.465-14.766,39.829-14.766h329.72h329.72
				c7.384,0,14.274,1.466,20.376,4.264c6.101,2.797,11.414,6.926,15.64,12.251c4.28,5.389,7.152,11.76,8.521,18.641
				c1.369,6.88,1.236,14.27-0.493,21.699l-76.751,329.72L818,971.156c-3.324,14.289-11.915,27.032-23.266,36.203
				C783.383,1016.529,769.271,1022.127,754.904,1022.127z M268.018,280.827c-8.299,0-16.778,3.537-23.67,9.166
				c-6.892,5.63-12.196,13.353-14.146,21.725l-76.748,329.719L76.706,971.156c-0.837,3.599-0.983,7.025-0.461,10.127
				c0.521,3.102,1.709,5.879,3.54,8.183c1.714,2.158,3.963,3.831,6.619,4.965c2.656,1.134,5.719,1.729,9.061,1.729h329.72h329.72
				c8.299,0,16.777-3.537,23.668-9.166c6.891-5.629,12.194-13.352,14.144-21.723l76.751-329.72l76.751-329.72
				c0.837-3.599,0.983-7.025,0.461-10.127c-0.521-3.102-1.709-5.879-3.54-8.183c-1.714-2.158-3.963-3.831-6.619-4.965
				c-2.656-1.134-5.719-1.729-9.061-1.729h-329.72H268.018z"/>
		</g>
		<g>
			<path fill="#ABE1ED" d="M925.643,451.468H554.995H184.347l16.608-71.347l16.608-71.347c2.631-11.302,9.594-21.534,18.724-28.941
				c9.131-7.407,20.429-11.988,31.731-11.988h329.719h329.719c11.302,0,20.468,4.581,26.151,11.988
				c5.683,7.407,7.882,17.639,5.251,28.941l-16.608,71.347L925.643,451.468z"/>
			<path fill="#2E4C59" d="M925.643,464.452H554.995H184.348c-1.98,0-3.906-0.452-5.645-1.292c-1.739-0.84-3.291-2.067-4.523-3.617
				c-1.232-1.552-2.075-3.341-2.498-5.225c-0.423-1.884-0.425-3.862,0.023-5.792l16.606-71.347l16.606-71.347
				c3.327-14.291,11.92-27.033,23.273-36.202c11.353-9.169,25.465-14.766,39.829-14.766h329.72h329.72
				c7.384,0,14.274,1.466,20.376,4.264c6.101,2.797,11.414,6.926,15.64,12.251c4.28,5.389,7.152,11.76,8.521,18.641
				c1.369,6.88,1.236,14.27-0.493,21.699l-16.608,71.349l-16.608,71.349c-0.685,2.939-2.337,5.448-4.572,7.223
				S928.66,464.452,925.643,464.452z M200.698,438.487h357.318h357.318l15.442-66.328l15.442-66.328
				c0.837-3.599,0.983-7.025,0.461-10.127c-0.521-3.102-1.709-5.879-3.54-8.183c-1.714-2.158-3.963-3.831-6.619-4.965
				c-2.656-1.134-5.719-1.729-9.061-1.729h-329.72h-329.72c-8.299,0-16.778,3.537-23.67,9.166
				c-6.892,5.63-12.196,13.353-14.146,21.725l-14.752,63.384L200.698,438.487z"/>
		</g>
		<g opacity="0.35">
			<path fill="#2E4C59" d="M949.805,347.668l4.527-19.447l4.527-19.447c2.631-11.302,0.432-21.534-5.251-28.941
				s-14.848-11.988-26.151-11.988H597.737H268.018c-11.302,0-22.601,4.581-31.731,11.988c-9.131,7.407-16.094,17.639-18.724,28.941
				l-4.527,19.447l-4.527,19.447h370.648H949.805z"/>
			<path fill="#2E4C59" d="M949.807,360.651h-370.65h-370.65c-1.98,0-3.906-0.452-5.645-1.292c-1.739-0.84-3.291-2.068-4.523-3.62
				c-1.232-1.551-2.075-3.34-2.498-5.224c-0.423-1.884-0.425-3.862,0.023-5.791l4.529-19.447l4.529-19.447
				c3.324-14.29,11.915-27.032,23.266-36.201s25.463-14.767,39.83-14.767h329.72h329.72c7.384,0,14.274,1.466,20.376,4.264
				c6.101,2.797,11.414,6.926,15.64,12.251c4.28,5.389,7.152,11.76,8.521,18.641c1.369,6.88,1.236,14.27-0.493,21.699l-4.526,19.448
				l-4.526,19.448c-0.682,2.939-2.334,5.448-4.57,7.223C955.644,359.611,952.824,360.651,949.807,360.651z M224.862,334.686H582.18
				h357.318l3.36-14.428l3.36-14.428c0.837-3.599,0.983-7.025,0.461-10.127c-0.521-3.102-1.709-5.879-3.54-8.183
				c-1.714-2.158-3.963-3.831-6.619-4.965c-2.656-1.134-5.719-1.729-9.061-1.729h-329.72h-329.72
				c-8.299,0-16.777,3.537-23.667,9.166c-6.891,5.629-12.194,13.352-14.144,21.723l-2.673,11.485L224.862,334.686z"/>
		</g>
		<g>
			<g>
				<path fill="#2E4C59" d="M278.878,821.751l28.806-1.511l28.806-1.511l31.188-142.992l31.188-142.992l-32.353,4.775l-32.353,4.775
					l2.133-9.781l2.133-9.781l46.641-10.248l46.642-10.248l-34.515,158.246L362.68,818.728l28.147,1.511l28.147,1.511l-2.235,10.248
					l-2.235,10.248h-70.048h-70.048l2.235-10.248L278.878,821.751z"/>
				<path fill="#2E4C59" d="M414.501,847.44h-70.047h-70.047c-0.786,0-1.551-0.178-2.241-0.509c-0.691-0.331-1.308-0.815-1.8-1.426
					c-0.494-0.612-0.835-1.32-1.012-2.066c-0.176-0.746-0.188-1.531-0.023-2.298l2.234-10.248l2.234-10.248
					c0.251-1.144,0.868-2.133,1.715-2.852c0.846-0.719,1.921-1.167,3.088-1.228l26.829-1.407l26.829-1.407l29.966-137.385
					l29.966-137.385l-28.64,4.226l-28.64,4.226c-0.829,0.123-1.675,0.037-2.459-0.236c-0.784-0.273-1.507-0.732-2.09-1.356
					c-0.583-0.624-0.994-1.37-1.213-2.169c-0.219-0.799-0.247-1.65-0.065-2.483l2.135-9.781l2.135-9.781
					c0.216-0.99,0.71-1.873,1.398-2.562c0.688-0.689,1.569-1.185,2.558-1.402l46.64-10.249l46.64-10.249
					c0.862-0.194,1.743-0.158,2.567,0.082s1.589,0.687,2.221,1.315c0.624,0.625,1.069,1.388,1.31,2.211s0.28,1.705,0.089,2.569
					l-33.863,155.265l-33.863,155.265l25.1,1.348l25.1,1.348c0.761,0.041,1.492,0.247,2.149,0.595s1.239,0.837,1.7,1.443
					c0.461,0.605,0.778,1.296,0.939,2.023s0.166,1.488,0.004,2.232l-2.236,10.248l-2.236,10.248
					c-0.259,1.192-0.917,2.213-1.815,2.936C416.86,847.015,415.721,847.44,414.501,847.44z M280.854,837.054h64.732h64.732
					l1.141-5.222l1.141-5.222l-25.1-1.348l-25.1-1.348c-0.761-0.041-1.492-0.247-2.149-0.595c-0.657-0.348-1.239-0.837-1.7-1.443
					c-0.461-0.605-0.778-1.296-0.939-2.022s-0.166-1.487-0.004-2.23l33.65-154.289l33.65-154.289l-41.057,9.023l-41.057,9.023
					l-0.981,4.484l-0.981,4.484l28.64-4.226l28.64-4.226c0.824-0.127,1.67-0.041,2.455,0.232c0.785,0.273,1.511,0.735,2.094,1.36
					c0.583,0.624,0.994,1.37,1.213,2.168c0.219,0.798,0.247,1.649,0.065,2.482L372.75,676.843l-31.188,142.991
					c-0.248,1.144-0.865,2.133-1.71,2.852c-0.846,0.719-1.921,1.167-3.087,1.228l-26.829,1.407l-26.829,1.407l-1.126,5.163
					L280.854,837.054z"/>
			</g>
			<g>
				<path fill="#2E4C59" d="M461.844,842.247l2.336-10.712l2.336-10.712l65.785-62.995l65.785-62.996
					c12.212-11.645,22.786-22.319,31.722-32.023c8.936-9.704,16.233-18.438,21.891-26.201c5.657-7.76,10.289-15.366,13.896-22.818
					c3.607-7.452,6.19-14.75,7.749-21.895c2.286-10.48,2.949-19.94,1.99-28.382c-0.959-8.442-3.54-15.864-7.744-22.268
					c-4.206-6.406-9.888-11.21-17.046-14.411c-7.158-3.202-15.791-4.802-25.901-4.802c-12.075,0-23.085,1.785-33.028,5.355
					c-9.944,3.57-18.822,8.926-26.634,16.068c-7.813,7.142-14.324,15.488-19.534,25.036s-9.119,20.3-11.726,32.254h-12.11h-12.11
					l-0.065-0.698l-0.065-0.698c2.717-14.129,7.515-27.171,14.396-39.126c6.88-11.955,15.842-22.822,26.885-32.603
					c11.044-9.781,23.163-17.116,36.358-22.006c13.195-4.89,27.467-7.335,42.814-7.335c13.674,0,25.519,2.095,35.534,6.287
					c10.015,4.191,18.2,10.479,24.555,18.863c6.355,8.384,10.35,18.204,11.986,29.46s0.913,23.946-2.168,38.073
					c-2.032,9.318-5.452,18.702-10.26,28.154c-4.807,9.452-11.002,18.971-18.583,28.558c-7.584,9.587-16.351,19.727-26.302,30.42
					c-9.951,10.693-21.086,21.938-33.406,33.735l-55.389,52.865l-55.389,52.865l0.09,0.584l0.09,0.584h69.281h69.281l6.298-23.871
					l6.298-23.871h11.566h11.566l-7.771,35.63l-7.771,35.63h-98.742H461.844z"/>
				<path fill="#2E4C59" d="M659.331,847.44h-98.742h-98.742c-0.786,0-1.551-0.178-2.241-0.509c-0.691-0.331-1.308-0.815-1.8-1.426
					c-0.494-0.612-0.837-1.32-1.014-2.066c-0.177-0.746-0.188-1.531-0.021-2.298l2.338-10.712l2.338-10.712
					c0.109-0.505,0.293-0.987,0.543-1.433c0.25-0.446,0.565-0.854,0.938-1.212l65.784-62.995l65.784-62.995
					c12.054-11.497,22.539-22.083,31.394-31.694c8.854-9.611,16.078-18.246,21.611-25.839c5.419-7.433,9.875-14.746,13.344-21.889
					c3.469-7.143,5.952-14.116,7.422-20.869c2.122-9.724,2.763-18.514,1.925-26.315s-3.152-14.613-6.941-20.381
					c-3.727-5.676-8.748-9.893-15.152-12.692c-6.404-2.798-14.193-4.178-23.455-4.178c-11.349,0-21.748,1.688-31.13,5.039
					c-9.382,3.352-17.747,8.368-25.029,15.025c-7.374,6.738-13.557,14.697-18.516,23.812c-4.96,9.115-8.696,19.386-11.176,30.75
					c-0.259,1.193-0.917,2.215-1.815,2.938c-0.898,0.724-2.037,1.149-3.256,1.149h-12.11h-12.11c-1.339,0-2.569-0.51-3.495-1.353
					c-0.926-0.843-1.549-2.02-1.673-3.353l-0.066-0.699l-0.066-0.699c-0.025-0.245-0.032-0.491-0.02-0.736
					c0.011-0.245,0.041-0.49,0.086-0.732c2.817-14.639,7.838-28.237,15.012-40.705c7.174-12.468,16.501-23.807,27.932-33.929
					c11.479-10.168,24.167-17.83,37.968-22.95s28.716-7.698,44.647-7.698c14.468,0,27.105,2.288,37.834,6.834
					s19.552,11.347,26.393,20.374c6.803,8.976,11.11,19.501,12.906,31.492s1.083,25.447-2.155,40.284
					c-2.107,9.663-5.671,19.443-10.657,29.27c-4.986,9.827-11.393,19.702-19.188,29.557c-7.637,9.654-16.518,19.922-26.573,30.727
					c-10.055,10.806-21.284,22.149-33.617,33.956l-51.316,48.978l-51.316,48.978h61.502h61.502l5.789-21.937l5.789-21.937
					c0.299-1.141,0.965-2.108,1.85-2.79c0.886-0.682,1.991-1.079,3.17-1.079h11.565h11.565c0.786,0,1.551,0.178,2.242,0.509
					c0.691,0.331,1.308,0.815,1.8,1.426c0.494,0.612,0.837,1.32,1.013,2.066c0.176,0.746,0.186,1.531,0.016,2.298l-7.769,35.631
					l-7.769,35.631c-0.259,1.193-0.917,2.215-1.815,2.938C661.689,847.015,660.551,847.44,659.331,847.44z M468.292,837.054h93.428
					h93.428l6.638-30.438l6.638-30.438h-6.342h-6.342l-5.789,21.937l-5.789,21.937c-0.299,1.141-0.965,2.108-1.85,2.79
					s-1.991,1.079-3.17,1.079h-69.281h-69.281c-1.283,0-2.47-0.469-3.384-1.255c-0.914-0.786-1.556-1.89-1.748-3.159l-0.089-0.584
					l-0.089-0.584c-0.129-0.837-0.049-1.678,0.216-2.456c0.266-0.778,0.717-1.494,1.331-2.08l55.388-52.865l55.388-52.865
					c12.158-11.639,23.219-22.81,33.112-33.438c9.893-10.628,18.62-20.714,26.11-30.181c7.297-9.23,13.289-18.437,17.941-27.557
					c4.652-9.121,7.965-18.155,9.905-27.04c2.896-13.285,3.597-25.252,2.113-35.825c-1.484-10.573-5.153-19.753-10.998-27.465
					c-5.89-7.77-13.41-13.544-22.691-17.375c-9.281-3.831-20.324-5.719-33.26-5.719c-14.623,0-28.304,2.358-40.955,7.042
					c-12.651,4.684-24.272,11.693-34.774,20.995c-9.924,8.79-18.131,18.566-24.58,29.262s-11.142,22.313-14.037,34.783h7.059h7.059
					c2.855-11.5,6.96-21.95,12.284-31.292c5.324-9.341,11.865-17.574,19.594-24.639c8.269-7.559,17.716-13.254,28.269-17.06
					s22.21-5.722,34.898-5.722c10.994,0,20.469,1.813,28.369,5.414c7.9,3.601,14.225,8.99,18.921,16.141
					c4.582,6.979,7.418,15.062,8.501,24.185s0.412,19.286-2.02,30.425c-1.625,7.461-4.332,15.117-8.094,22.912
					c-3.762,7.795-8.58,15.73-14.427,23.749c-5.713,7.844-13.131,16.722-22.189,26.566c-9.058,9.844-19.758,20.653-32.033,32.359
					l-65.209,62.444l-65.209,62.444l-1.481,6.788L468.292,837.054z"/>
			</g>
		</g>
		<g opacity="0.15">
			<polygon fill="#2E4C59" points="761.695,901.271 450.294,901.271 138.893,901.271 133.207,925.694 127.522,950.118 
				438.924,950.118 750.325,950.118 756.01,925.694 			"/>
			<path fill="#2E4C59" d="M750.324,963.1h-311.4h-311.4c-1.98,0-3.906-0.452-5.645-1.292c-1.739-0.84-3.291-2.067-4.523-3.617
				c-1.232-1.552-2.075-3.341-2.498-5.225c-0.423-1.884-0.425-3.862,0.023-5.792l5.685-24.423l5.685-24.423
				c0.685-2.939,2.337-5.448,4.572-7.223c2.235-1.775,5.053-2.815,8.071-2.815h311.4h311.4c1.98,0,3.906,0.452,5.645,1.292
				c1.739,0.84,3.291,2.067,4.523,3.617c1.232,1.552,2.075,3.341,2.498,5.225c0.423,1.884,0.425,3.862-0.023,5.792l-5.685,24.423
				l-5.685,24.423c-0.685,2.939-2.337,5.448-4.572,7.223C756.16,962.06,753.342,963.1,750.324,963.1z M143.874,937.135h298.07
				h298.07l2.665-11.441l2.665-11.441h-298.07h-298.07l-2.665,11.441L143.874,937.135z"/>
		</g>
	</g>
	<path fill="#2E4C59" d="M877.526,357.819c-15.381,0-27.096-11.316-34.965-28.221s-11.893-39.398-11.893-61.754
		s4.024-44.848,11.893-61.752s19.584-28.219,34.965-28.219c15.384,0,27.099,11.315,34.969,28.219s11.894,39.397,11.894,61.752
		c0,3.585-1.453,6.831-3.802,9.18c-2.349,2.349-5.595,3.802-9.18,3.802c-3.585,0-6.831-1.453-9.18-3.802
		c-2.349-2.349-3.802-5.595-3.802-9.18c0-20.788-3.708-36.79-8.175-47.595c-4.466-10.805-9.691-16.412-12.724-16.412
		c-3.033,0-8.256,5.608-12.721,16.412c-4.465,10.805-8.172,26.806-8.172,47.595c0,20.79,3.707,36.792,8.172,47.597
		c4.465,10.805,9.689,16.412,12.721,16.412c3.585,0,6.831,1.453,9.18,3.802s3.802,5.595,3.802,9.18c0,3.585-1.453,6.831-3.802,9.18
		C884.357,356.366,881.112,357.819,877.526,357.819z"/>
	<path fill="#2E4C59" d="M760.234,357.819c-15.384,0-27.099-11.316-34.969-28.221S713.37,290.2,713.37,267.845
		s4.024-44.848,11.894-61.752s19.586-28.219,34.969-28.219s27.099,11.315,34.969,28.219s11.894,39.397,11.894,61.752
		c0,3.585-1.453,6.831-3.802,9.18c-2.349,2.349-5.595,3.802-9.18,3.802c-3.585,0-6.831-1.453-9.18-3.802
		c-2.349-2.349-3.802-5.595-3.802-9.18c0-20.788-3.708-36.79-8.175-47.595c-4.466-10.805-9.691-16.412-12.724-16.412
		s-8.257,5.608-12.724,16.412c-4.466,10.805-8.175,26.806-8.175,47.595c0,20.79,3.708,36.792,8.175,47.597
		c4.466,10.805,9.691,16.412,12.724,16.412c3.585,0,6.831,1.453,9.18,3.802s3.802,5.595,3.802,9.18c0,3.585-1.453,6.831-3.802,9.18
		C767.065,356.366,763.819,357.819,760.234,357.819z"/>
	<path fill="#2E4C59" d="M642.941,357.819c-15.384,0-27.099-11.316-34.969-28.221s-11.894-39.398-11.894-61.754
		s4.024-44.848,11.894-61.752s19.586-28.219,34.969-28.219c15.381,0,27.096,11.315,34.965,28.219s11.893,39.397,11.893,61.752
		c0,3.585-1.453,6.831-3.802,9.18c-2.349,2.349-5.595,3.802-9.18,3.802s-6.831-1.453-9.18-3.802
		c-2.349-2.349-3.802-5.595-3.802-9.18c0-20.788-3.707-36.79-8.172-47.595c-4.465-10.805-9.689-16.412-12.721-16.412
		s-8.257,5.608-12.724,16.412c-4.466,10.805-8.175,26.806-8.175,47.595c0,20.79,3.708,36.792,8.175,47.597
		c4.466,10.805,9.691,16.412,12.724,16.412c3.585,0,6.831,1.453,9.18,3.802c2.349,2.349,3.802,5.595,3.802,9.18
		c0,3.585-1.453,6.831-3.802,9.18C649.772,356.366,646.526,357.819,642.941,357.819z"/>
	<path fill="#2E4C59" d="M525.643,357.819c-15.384,0-27.099-11.316-34.969-28.221s-11.894-39.398-11.894-61.754
		s4.024-44.848,11.894-61.752s19.586-28.219,34.969-28.219c15.384,0,27.099,11.315,34.969,28.219s11.894,39.397,11.894,61.752
		c0,3.585-1.453,6.831-3.802,9.18c-2.349,2.349-5.595,3.802-9.18,3.802c-3.585,0-6.831-1.453-9.18-3.802
		c-2.349-2.349-3.802-5.595-3.802-9.18c0-20.788-3.708-36.79-8.175-47.595c-4.466-10.805-9.691-16.412-12.724-16.412
		c-3.033,0-8.257,5.608-12.724,16.412c-4.466,10.805-8.175,26.806-8.175,47.595c0,20.79,3.708,36.792,8.175,47.597
		c4.466,10.805,9.691,16.412,12.724,16.412c3.585,0,6.831,1.453,9.18,3.802s3.802,5.595,3.802,9.18c0,3.585-1.453,6.831-3.802,9.18
		C532.474,356.366,529.228,357.819,525.643,357.819z"/>
	<path fill="#2E4C59" d="M408.35,357.819c-15.384,0-27.099-11.316-34.969-28.221c-7.87-16.905-11.894-39.398-11.894-61.754
		s4.024-44.848,11.894-61.752c7.87-16.904,19.586-28.219,34.969-28.219c15.381,0,27.096,11.315,34.965,28.219
		c7.869,16.904,11.893,39.397,11.893,61.752c0,3.585-1.453,6.831-3.802,9.18c-2.349,2.349-5.595,3.802-9.18,3.802
		c-3.585,0-6.831-1.453-9.18-3.802c-2.349-2.349-3.802-5.595-3.802-9.18c0-20.788-3.707-36.79-8.172-47.595
		c-4.465-10.805-9.689-16.412-12.721-16.412c-3.033,0-8.257,5.608-12.724,16.412c-4.466,10.805-8.175,26.806-8.175,47.595
		c0,20.79,3.708,36.792,8.175,47.597c4.466,10.805,9.691,16.412,12.724,16.412c3.585,0,6.831,1.453,9.18,3.802
		c2.349,2.349,3.802,5.595,3.802,9.18c0,3.585-1.453,6.831-3.802,9.18C415.181,356.366,411.935,357.819,408.35,357.819z"/>
	<path fill="#2E4C59" d="M291.052,357.819c-15.381,0-27.096-11.316-34.965-28.221c-7.869-16.905-11.893-39.398-11.893-61.754
		s4.024-44.848,11.893-61.752c7.869-16.904,19.584-28.219,34.965-28.219c15.384,0,27.099,11.315,34.969,28.219
		s11.894,39.397,11.894,61.752c0,3.585-1.453,6.831-3.802,9.18c-2.349,2.349-5.595,3.802-9.18,3.802
		c-3.585,0-6.831-1.453-9.18-3.802c-2.349-2.349-3.802-5.595-3.802-9.18c0-20.788-3.708-36.79-8.175-47.595
		c-4.466-10.805-9.691-16.412-12.724-16.412c-3.033,0-8.256,5.608-12.721,16.412c-4.465,10.805-8.172,26.806-8.172,47.595
		c0,20.79,3.707,36.792,8.172,47.597c4.465,10.805,9.689,16.412,12.721,16.412c3.585,0,6.831,1.453,9.18,3.802
		c2.349,2.349,3.802,5.595,3.802,9.18c0,3.585-1.453,6.831-3.802,9.18C297.883,356.366,294.637,357.819,291.052,357.819z"/>
</g>
</svg>
