<?xml version="1.0" encoding="utf-8"?>
<!-- Generator: Adobe Illustrator 19.1.1, SVG Export Plug-In . SVG Version: 6.00 Build 0)  -->
<svg version="1.1" id="Layer_1" xmlns="http://www.w3.org/2000/svg" xmlns:xlink="http://www.w3.org/1999/xlink" x="0px" y="0px"
	 viewBox="0 0 1200 1200" enable-background="new 0 0 1200 1200" xml:space="preserve">
<g>
	<g>
		<polyline fill="#EAEEEF" points="600.322,1049.035 600.322,600.001 600.322,150.966 		"/>
		<path fill="#2E4C59" d="M600.322,1063.018c-3.862,0-7.358-1.565-9.889-4.096c-2.531-2.531-4.096-6.027-4.096-9.889V600V150.967
			c0-3.862,1.565-7.358,4.096-9.889c2.531-2.531,6.027-4.096,9.889-4.096s7.358,1.565,9.889,4.096
			c2.531,2.531,4.096,6.027,4.096,9.889V600v449.033c0,3.862-1.565,7.358-4.096,9.889
			C607.681,1061.453,604.185,1063.018,600.322,1063.018z"/>
	</g>
	<g>
		<polygon fill="#FFFFFF" points="1059.891,855.862 600,855.862 140.11,855.862 140.11,539.197 140.11,222.532 600,222.532 
			1059.891,222.532 1059.891,539.197 		"/>
		<path fill="#2E4C59" d="M1059.89,869.846H600H140.11c-3.862,0-7.358-1.565-9.889-4.096c-2.531-2.531-4.096-6.027-4.096-9.889
			V539.196V222.531c0-3.862,1.565-7.358,4.096-9.889c2.531-2.531,6.027-4.096,9.889-4.096H600h459.89
			c3.862,0,7.358,1.565,9.889,4.096c2.531,2.531,4.096,6.027,4.096,9.889v316.665v316.665c0,3.862-1.565,7.358-4.096,9.889
			C1067.249,868.281,1063.752,869.846,1059.89,869.846z M154.095,841.876H600h445.905v-302.68v-302.68H600H154.095v302.68V841.876z"
			/>
	</g>
	<g opacity="0.2">
		<polygon fill="#2E4C59" points="1059.891,855.862 600,855.862 140.11,855.862 140.11,831.402 140.11,806.942 600,806.942 
			1059.891,806.942 1059.891,831.402 		"/>
		<path fill="#2E4C59" d="M1059.89,869.846H600H140.11c-3.862,0-7.358-1.565-9.889-4.096c-2.531-2.531-4.096-6.027-4.096-9.889
			v-24.46v-24.46c0-3.862,1.565-7.358,4.096-9.889c2.531-2.531,6.027-4.096,9.889-4.096H600h459.89c3.862,0,7.358,1.565,9.889,4.096
			c2.531,2.531,4.096,6.027,4.096,9.889v24.46v24.46c0,3.862-1.565,7.358-4.096,9.889
			C1067.249,868.281,1063.752,869.846,1059.89,869.846z M154.095,841.876H600h445.905v-10.475v-10.475H600H154.095v10.475V841.876z"
			/>
	</g>
	<g>
		<polyline fill="#EAEEEF" points="63.986,222.532 600,222.532 1136.016,222.532 		"/>
		<path fill="#2E4C59" d="M1136.015,236.515H600H63.985c-3.862,0-7.358-1.565-9.889-4.096c-2.531-2.531-4.096-6.027-4.096-9.889
			c0-3.862,1.565-7.358,4.096-9.889c2.531-2.531,6.027-4.096,9.889-4.096H600h536.015c3.862,0,7.358,1.565,9.889,4.096
			c2.531,2.531,4.096,6.027,4.096,9.889c0,3.862-1.565,7.358-4.096,9.889C1143.374,234.95,1139.877,236.515,1136.015,236.515z"/>
	</g>
	<g>
		<polyline fill="#EAEEEF" points="63.986,855.862 600,855.862 1136.016,855.862 		"/>
		<path fill="#2E4C59" d="M1136.015,869.846H600H63.985c-3.862,0-7.358-1.565-9.889-4.096c-2.531-2.531-4.096-6.027-4.096-9.889
			s1.565-7.358,4.096-9.889c2.531-2.531,6.027-4.096,9.889-4.096H600h536.015c3.862,0,7.358,1.565,9.889,4.096
			c2.531,2.531,4.096,6.027,4.096,9.889s-1.565,7.358-4.096,9.889C1143.374,868.281,1139.877,869.846,1136.015,869.846z"/>
	</g>
	<g>
		<g>
			<polyline fill="#EAEEEF" points="742.796,862.236 802.089,955.636 861.383,1049.035 			"/>
			<path fill="#2E4C59" d="M861.392,1063.018c-2.314,0-4.602-0.574-6.646-1.672s-3.84-2.72-5.171-4.818l-59.294-93.398
				l-59.294-93.398c-2.07-3.261-2.624-7.051-1.844-10.543c0.78-3.492,2.893-6.687,6.154-8.757c3.253-2.065,7.044-2.618,10.539-1.84
				c3.495,0.779,6.693,2.888,8.761,6.15l59.294,93.398l59.294,93.398c2.07,3.261,2.624,7.051,1.844,10.543
				c-0.78,3.492-2.893,6.687-6.154,8.757c-1.161,0.738-2.39,1.282-3.65,1.643C863.966,1062.842,862.676,1063.018,861.392,1063.018z"
				/>
		</g>
		<g>
			<polyline fill="#EAEEEF" points="457.205,862.236 397.912,955.636 338.618,1049.035 			"/>
			<path fill="#2E4C59" d="M338.608,1063.018c-1.284,0-2.574-0.176-3.834-0.537c-1.26-0.36-2.489-0.905-3.65-1.643
				c-3.261-2.07-5.374-5.265-6.154-8.757c-0.78-3.492-0.227-7.282,1.844-10.543l59.294-93.398l59.294-93.398
				c2.068-3.264,5.265-5.375,8.759-6.154s7.285-0.224,10.541,1.844c3.261,2.07,5.374,5.265,6.154,8.757
				c0.78,3.492,0.227,7.282-1.844,10.543l-59.294,93.398l-59.294,93.398c-1.33,2.098-3.127,3.72-5.171,4.818
				C343.21,1062.444,340.921,1063.018,338.608,1063.018z"/>
		</g>
	</g>
	<g>
		<g>
			<path fill="#ABE1ED" d="M614.599,327.705c-58.402,0-111.275,23.672-149.547,61.945s-61.944,91.145-61.944,149.547
				c0,58.402,23.672,111.275,61.944,149.547s91.145,61.944,149.547,61.944s111.275-23.672,149.547-61.944
				s61.944-91.145,61.944-149.547H720.345H614.599V433.451V327.705z"/>
			<path fill="#2E4C59" d="M614.597,764.675c-62.165,0-118.533-25.288-159.36-66.116s-66.113-97.198-66.113-159.363
				s25.286-118.533,66.113-159.36s97.196-66.113,159.36-66.113c3.862,0,7.358,1.565,9.889,4.096
				c2.531,2.531,4.096,6.027,4.096,9.889v98.752v98.752h98.755h98.755c3.862,0,7.358,1.565,9.889,4.096
				c2.531,2.531,4.096,6.027,4.096,9.889c0,62.164-25.288,118.534-66.116,159.363S676.761,764.675,614.597,764.675z
				 M600.612,342.183c-51.203,3.597-97.083,26.799-130.162,62.128s-53.357,82.783-53.357,134.885
				c0,54.454,22.15,103.831,57.914,139.595s85.139,57.914,139.59,57.914c52.105,0,99.56-20.279,134.889-53.36
				c35.329-33.08,58.531-78.961,62.128-130.165h-98.509h-98.509c-3.862,0-7.358-1.565-9.889-4.096
				c-2.531-2.531-4.096-6.027-4.096-9.889V440.69V342.183z"/>
		</g>
		<g>
			<path fill="#FDE9A4" d="M667.577,333.938v76.14v76.14h76.14h76.14c0-42.051-17.045-80.121-44.602-107.679
				S709.629,333.938,667.577,333.938z"/>
			<path fill="#2E4C59" d="M819.858,500.202h-76.141h-76.141c-3.862,0-7.358-1.565-9.889-4.096
				c-2.531-2.531-4.096-6.027-4.096-9.889v-76.139V333.94c0-3.862,1.565-7.358,4.096-9.889c2.531-2.531,6.027-4.096,9.889-4.096
				c45.839,0,87.406,18.646,117.513,48.752c30.107,30.106,48.755,71.671,48.755,117.51c0,3.862-1.565,7.358-4.096,9.889
				C827.216,498.637,823.72,500.202,819.858,500.202z M681.56,472.232h61.807h61.807c-3.286-32.556-17.91-61.815-39.852-83.756
				c-21.942-21.942-51.203-36.566-83.761-39.852v61.804V472.232z"/>
		</g>
	</g>
	<g>
		<g>
			<polyline fill="#FDE9A4" points="322.409,302.091 268.979,302.091 215.549,302.091 			"/>
			<path fill="#2E4C59" d="M322.411,316.076h-53.432h-53.432c-3.862,0-7.358-1.565-9.889-4.096
				c-2.531-2.531-4.096-6.027-4.096-9.889s1.565-7.358,4.096-9.889c2.531-2.531,6.027-4.096,9.889-4.096h53.432h53.432
				c3.862,0,7.358,1.565,9.889,4.096s4.096,6.027,4.096,9.889s-1.565,7.358-4.096,9.889S326.273,316.076,322.411,316.076z"/>
		</g>
		<g>
			<polyline fill="#FDE9A4" points="322.409,370.651 268.979,370.651 215.549,370.651 			"/>
			<path fill="#2E4C59" d="M322.411,384.635h-53.432h-53.432c-3.862,0-7.358-1.565-9.889-4.096
				c-2.531-2.531-4.096-6.027-4.096-9.889s1.565-7.358,4.096-9.889c2.531-2.531,6.027-4.096,9.889-4.096h53.432h53.432
				c3.862,0,7.358,1.565,9.889,4.096s4.096,6.027,4.096,9.889s-1.565,7.358-4.096,9.889S326.273,384.635,322.411,384.635z"/>
		</g>
		<g>
			<polyline fill="#FDE9A4" points="322.409,439.211 268.979,439.211 215.549,439.211 			"/>
			<path fill="#2E4C59" d="M322.411,453.194h-53.432h-53.432c-3.862,0-7.358-1.565-9.889-4.096
				c-2.531-2.531-4.096-6.027-4.096-9.889c0-3.862,1.565-7.358,4.096-9.889c2.531-2.531,6.027-4.096,9.889-4.096h53.432h53.432
				c3.862,0,7.358,1.565,9.889,4.096s4.096,6.027,4.096,9.889c0,3.862-1.565,7.358-4.096,9.889S326.273,453.194,322.411,453.194z"/>
		</g>
	</g>
</g>
</svg>
