<?xml version="1.0" encoding="utf-8"?>
<!-- Generator: Adobe Illustrator 19.1.1, SVG Export Plug-In . SVG Version: 6.00 Build 0)  -->
<svg version="1.1" id="Layer_1" xmlns="http://www.w3.org/2000/svg" xmlns:xlink="http://www.w3.org/1999/xlink" x="0px" y="0px"
	 viewBox="0 0 1200 1200" enable-background="new 0 0 1200 1200" xml:space="preserve">
<g>
	<path fill="#2E4C59" d="M1012.807,794.487c-3.87,0-7.374-1.568-9.91-4.104c-2.536-2.536-4.104-6.04-4.104-9.91V655.707V530.941
		c0-109.948-44.724-209.646-116.935-281.857S709.948,132.148,600,132.148s-209.646,44.724-281.857,116.936
		S201.207,420.993,201.207,530.941v124.766v124.766c0,3.87-1.568,7.374-4.104,9.91c-2.536,2.536-6.04,4.104-9.91,4.104
		c-3.87,0-7.374-1.568-9.91-4.104c-2.536-2.536-4.104-6.04-4.104-9.91V655.707V530.941c0-117.675,47.868-224.38,125.155-301.667
		S482.325,104.119,600,104.119s224.38,47.868,301.667,125.155s125.155,183.992,125.155,301.667v124.766v124.766
		c0,3.87-1.568,7.374-4.104,9.91C1020.181,792.919,1016.678,794.487,1012.807,794.487z"/>
	<g>
		<g>
			<g>
				<g>
					<path fill="#EAEEEF" d="M64.015,812.631v-7.305v-7.305c0-24.185,9.803-46.081,25.652-61.93
						c15.849-15.849,37.745-25.652,61.93-25.652h7.305h7.305c24.185,0,46.081,9.803,61.93,25.652
						c15.849,15.849,25.652,37.745,25.652,61.93v7.305v7.305c0,24.185-9.803,46.081-25.652,61.93
						c-15.849,15.849-37.745,25.652-61.93,25.652h-7.305h-7.305c-24.185,0-46.081-9.803-61.93-25.652
						C73.818,858.711,64.015,836.816,64.015,812.631z"/>
					<path fill="#2E4C59" d="M158.901,914.227c-30.025,0-57.25-12.213-76.969-31.932S50,835.351,50,805.327
						c0-30.025,12.213-57.251,31.932-76.97c19.719-19.72,46.944-31.933,76.969-31.933s57.251,12.214,76.97,31.933
						c19.72,19.72,31.933,46.946,31.933,76.97c0,30.025-12.214,57.25-31.933,76.969S188.925,914.227,158.901,914.227z
						 M158.901,724.452c-22.296,0-42.514,9.07-57.158,23.714c-14.644,14.644-23.714,34.863-23.714,57.16
						c0,22.296,9.07,42.514,23.714,57.158c14.644,14.644,34.862,23.714,57.158,23.714c22.297,0,42.516-9.07,57.16-23.714
						c14.644-14.644,23.714-34.862,23.714-57.158c0-22.297-9.07-42.516-23.714-57.16
						C201.417,733.522,181.198,724.452,158.901,724.452z"/>
				</g>
				<g>
					<path fill="#ABE1ED" d="M350.404,609.408c-4.654-0.642-9.353-1.143-14.096-1.482c-4.743-0.34-9.531-0.518-14.361-0.518
						c-56.983,0-108.572,23.097-145.915,60.44s-60.44,88.932-60.44,145.915c0,56.983,23.097,108.572,60.44,145.915
						c37.343,37.343,88.932,60.44,145.915,60.44c4.83,0,9.618-0.179,14.361-0.519s9.443-0.84,14.096-1.482V813.763V609.408z"/>
					<path fill="#2E4C59" d="M321.947,1034.134c-60.756,0-115.848-24.714-155.751-64.618s-64.618-94.997-64.618-155.754
						c0-60.756,24.714-115.848,64.618-155.751c39.903-39.903,94.996-64.618,155.751-64.618c4.958,0,9.992,0.179,15.067,0.535
						c5.074,0.356,10.19,0.889,15.311,1.597c3.467,0.479,6.491,2.2,8.648,4.676c2.157,2.476,3.448,5.707,3.448,9.207v204.355
						v204.355c0,3.5-1.291,6.732-3.45,9.208c-2.158,2.476-5.184,4.198-8.652,4.675c-5.13,0.708-10.249,1.241-15.323,1.597
						C331.922,1033.955,326.894,1034.134,321.947,1034.134z M321.947,621.423c-53.028,0-101.113,21.571-135.941,56.399
						s-56.399,82.913-56.399,135.941c0,53.028,21.571,101.114,56.399,135.943c34.828,34.828,82.913,56.4,135.941,56.4
						c2.366,0,4.757-0.047,7.167-0.142s4.837-0.236,7.278-0.425V813.764V621.99c-2.438-0.189-4.863-0.331-7.272-0.425
						C326.709,621.47,324.317,621.423,321.947,621.423z"/>
				</g>
				<g opacity="0.2">
					<path fill="#2E4C59" d="M321.947,607.408c-12.884,0-25.487,1.191-37.712,3.46c-12.225,2.269-24.072,5.617-35.444,9.931v192.965
						v192.965c11.372,4.314,23.219,7.661,35.444,9.93c12.225,2.269,24.828,3.46,37.712,3.46c4.83,0,9.618-0.179,14.361-0.519
						s9.443-0.84,14.096-1.482V813.763V609.408c-4.654-0.642-9.353-1.143-14.096-1.482
						C331.565,607.587,326.777,607.408,321.947,607.408z"/>
					<path fill="#2E4C59" d="M321.947,1034.134c-13.408,0-26.684-1.203-39.735-3.592s-25.878-5.965-38.388-10.71
						c-2.724-1.032-4.985-2.852-6.566-5.142s-2.481-5.05-2.481-7.961V813.764V620.799c0-2.911,0.9-5.671,2.48-7.961
						c1.58-2.29,3.841-4.11,6.564-5.142c17.134-6.498,34.775-10.851,52.875-12.924s36.659-1.866,55.628,0.754
						c3.467,0.479,6.491,2.2,8.648,4.676c2.157,2.476,3.448,5.707,3.448,9.207v204.355v204.355c0,3.5-1.291,6.732-3.45,9.208
						c-2.158,2.476-5.184,4.198-8.652,4.675c-5.13,0.708-10.249,1.241-15.323,1.597
						C331.922,1033.955,326.894,1034.134,321.947,1034.134z M262.806,996.801c9.546,3.089,19.282,5.415,29.156,6.969
						c9.874,1.554,19.886,2.335,29.985,2.335c2.366,0,4.757-0.047,7.167-0.142s4.837-0.236,7.278-0.425V813.764V621.99
						c-12.825-0.988-25.33-0.71-37.575,0.768c-12.244,1.478-24.228,4.156-36.01,7.969v183.037V996.801z"/>
				</g>
				<g>
					<path fill="#EAEEEF" d="M364.491,1081.867h-2.565h-2.565c-8.457,0-16.144-3.459-21.718-9.033
						c-5.574-5.574-9.033-13.261-9.033-21.718V813.763V576.411c0-8.457,3.459-16.144,9.033-21.718
						c5.574-5.574,13.261-9.033,21.718-9.033h2.565h2.565c8.457,0,16.144,3.459,21.718,9.033c5.574,5.574,9.033,13.261,9.033,21.718
						v237.353v237.353c0,8.456-3.46,16.144-9.033,21.718C380.635,1078.407,372.947,1081.867,364.491,1081.867z"/>
					<path fill="#2E4C59" d="M361.927,1095.881c-13.05,0-24.883-5.308-33.453-13.878c-8.571-8.57-13.879-20.403-13.879-33.451
						V813.764V578.977c0-13.05,5.308-24.883,13.879-33.453c8.571-8.571,20.404-13.879,33.453-13.879
						c13.048,0,24.881,5.308,33.451,13.879c8.57,8.571,13.878,20.404,13.878,33.453v234.787v234.787
						c0,13.048-5.308,24.881-13.878,33.451C386.807,1090.573,374.975,1095.881,361.927,1095.881z M361.927,559.674
						c-5.321,0-10.147,2.165-13.642,5.661c-3.495,3.495-5.661,8.321-5.661,13.642v234.787v234.787
						c0,5.321,2.165,10.146,5.661,13.641c3.495,3.495,8.321,5.659,13.642,5.659c5.321,0,10.146-2.164,13.641-5.659
						s5.659-8.32,5.659-13.641V813.764V578.977c0-5.321-2.164-10.147-5.659-13.642C372.073,561.839,367.248,559.674,361.927,559.674
						z"/>
				</g>
			</g>
			<g>
				<polyline fill="#EAEEEF" points="135.252,720.054 135.252,637.854 135.252,555.654 				"/>
				<path fill="#2E4C59" d="M135.251,734.068c-3.87,0-7.374-1.568-9.91-4.104c-2.536-2.536-4.104-6.04-4.104-9.91v-82.199v-82.199
					c0-3.87,1.568-7.374,4.104-9.91c2.536-2.536,6.04-4.104,9.91-4.104c3.87,0,7.374,1.568,9.91,4.104
					c2.536,2.536,4.104,6.04,4.104,9.91v82.199v82.199c0,3.87-1.568,7.374-4.104,9.91
					C142.625,732.5,139.122,734.068,135.251,734.068z"/>
			</g>
		</g>
		<g>
			<g>
				<g>
					<path fill="#EAEEEF" d="M1135.986,807.025v-7.305v-7.305c0-24.185-9.803-46.081-25.652-61.93
						c-15.849-15.849-37.745-25.652-61.93-25.652h-7.305h-7.305c-24.185,0-46.081,9.803-61.93,25.652
						c-15.849,15.849-25.652,37.745-25.652,61.93v7.305v7.305c0,24.185,9.803,46.081,25.652,61.93
						c15.849,15.849,37.745,25.652,61.93,25.652h7.305h7.305c24.185,0,46.081-9.803,61.93-25.652
						C1126.183,853.105,1135.986,831.21,1135.986,807.025z"/>
					<path fill="#2E4C59" d="M1041.099,908.621c-30.025,0-57.25-12.213-76.969-31.932c-19.719-19.719-31.932-46.944-31.932-76.969
						c0-30.025,12.213-57.251,31.932-76.97c19.719-19.72,46.944-31.933,76.969-31.933s57.25,12.214,76.969,31.933
						c19.719,19.72,31.932,46.946,31.932,76.97c0,30.025-12.213,57.25-31.932,76.969
						C1098.349,896.409,1071.124,908.621,1041.099,908.621z M1041.099,718.846c-22.296,0-42.514,9.07-57.158,23.714
						c-14.644,14.644-23.714,34.863-23.714,57.16c0,22.296,9.07,42.514,23.714,57.158c14.644,14.644,34.862,23.714,57.158,23.714
						c22.296,0,42.514-9.07,57.158-23.714c14.644-14.644,23.714-34.862,23.714-57.158c0-22.297-9.07-42.516-23.714-57.16
						C1083.613,727.916,1063.395,718.846,1041.099,718.846z"/>
				</g>
				<g>
					<path fill="#ABE1ED" d="M849.597,603.803c4.654-0.642,9.353-1.143,14.096-1.482s9.531-0.518,14.361-0.518
						c56.984,0,108.572,23.097,145.915,60.44s60.44,88.932,60.44,145.915c0,56.984-23.097,108.572-60.44,145.915
						c-37.343,37.343-88.932,60.44-145.915,60.44c-4.83,0-9.618-0.179-14.361-0.518c-4.743-0.34-9.443-0.84-14.096-1.482V808.157
						V603.803z"/>
					<path fill="#2E4C59" d="M878.053,1028.529c-4.948,0-9.976-0.179-15.05-0.536s-10.193-0.889-15.323-1.597
						c-3.467-0.478-6.491-2.199-8.649-4.675c-2.158-2.477-3.449-5.708-3.449-9.208V808.158V603.803c0-3.5,1.291-6.731,3.448-9.207
						c2.157-2.476,5.181-4.197,8.648-4.676c5.119-0.708,10.233-1.241,15.308-1.597c5.074-0.356,10.109-0.535,15.067-0.535
						c60.757,0,115.85,24.714,155.754,64.618c39.904,39.903,64.618,94.996,64.618,155.751c0,60.757-24.714,115.85-64.618,155.754
						C993.903,1003.814,938.81,1028.529,878.053,1028.529z M863.612,999.933c2.44,0.189,4.867,0.331,7.276,0.425
						c2.409,0.094,4.799,0.142,7.165,0.142c53.028,0,101.114-21.571,135.943-56.4c34.829-34.829,56.4-82.914,56.4-135.943
						c0-53.028-21.571-101.113-56.4-135.941c-34.829-34.828-82.914-56.399-135.943-56.399c-2.37,0-4.762,0.047-7.171,0.141
						c-2.408,0.094-4.834,0.235-7.271,0.423v191.776V999.933z"/>
				</g>
				<g opacity="0.2">
					<path fill="#2E4C59" d="M878.054,601.802c12.884,0,25.487,1.191,37.712,3.46s24.072,5.617,35.444,9.93v192.965v192.965
						c-11.372,4.314-23.219,7.661-35.444,9.93s-24.828,3.46-37.712,3.46c-4.83,0-9.618-0.179-14.361-0.518
						c-4.743-0.34-9.443-0.84-14.096-1.482V808.157V603.803c4.654-0.642,9.353-1.143,14.096-1.482S873.224,601.802,878.054,601.802z
						"/>
					<path fill="#2E4C59" d="M878.053,1028.529c-4.948,0-9.976-0.179-15.05-0.536s-10.193-0.889-15.323-1.597
						c-3.467-0.478-6.491-2.199-8.649-4.675c-2.158-2.477-3.449-5.708-3.449-9.208V808.158V603.803c0-3.5,1.291-6.731,3.448-9.207
						c2.157-2.476,5.181-4.197,8.648-4.676c18.97-2.618,37.532-2.825,55.632-0.752c18.101,2.072,35.741,6.424,52.869,12.922
						c2.722,1.032,4.983,2.852,6.564,5.142c1.58,2.29,2.48,5.05,2.48,7.961v192.965v192.965c0,2.911-0.9,5.671-2.48,7.961
						c-1.58,2.29-3.841,4.11-6.564,5.142c-12.511,4.745-25.337,8.32-38.389,10.71S891.463,1028.529,878.053,1028.529z
						 M863.612,999.933c12.855,0.99,25.359,0.711,37.595-0.768c12.236-1.479,24.204-4.158,35.987-7.969V808.157V625.118
						c-11.781-3.81-23.761-6.487-36.004-7.965c-12.243-1.478-24.748-1.757-37.578-0.772v191.776V999.933z"/>
				</g>
				<g>
					<path fill="#EAEEEF" d="M835.51,1076.261h2.565h2.565c8.457,0,16.144-3.459,21.718-9.033
						c5.574-5.574,9.033-13.261,9.033-21.718V808.157V570.805c0-8.456-3.46-16.144-9.033-21.718s-13.261-9.033-21.718-9.033h-2.565
						h-2.565c-8.457,0-16.144,3.459-21.718,9.033c-5.574,5.574-9.033,13.261-9.033,21.718v237.353v237.352
						c0,8.457,3.459,16.144,9.033,21.718C819.366,1072.802,827.054,1076.261,835.51,1076.261z"/>
					<path fill="#2E4C59" d="M838.076,1090.275c-13.05,0-24.883-5.308-33.453-13.878c-8.571-8.57-13.879-20.403-13.879-33.451
						V808.158V573.371c0-13.05,5.308-24.883,13.879-33.453c8.571-8.571,20.404-13.879,33.453-13.879
						c13.048,0,24.881,5.308,33.451,13.879c8.57,8.571,13.878,20.404,13.878,33.453v234.787v234.787
						c0,13.048-5.308,24.881-13.878,33.451C862.957,1084.967,851.125,1090.275,838.076,1090.275z M838.076,554.068
						c-5.321,0-10.147,2.165-13.642,5.661c-3.495,3.495-5.661,8.321-5.661,13.642v234.787v234.787
						c0,5.321,2.165,10.146,5.661,13.641c3.495,3.495,8.321,5.659,13.642,5.659s10.146-2.164,13.641-5.659s5.659-8.32,5.659-13.641
						V808.158V573.371c0-5.321-2.164-10.147-5.659-13.642C848.222,556.233,843.397,554.068,838.076,554.068z"/>
				</g>
			</g>
			<g>
				<polyline fill="#EAEEEF" points="1064.749,714.448 1064.749,632.248 1064.749,550.049 				"/>
				<path fill="#2E4C59" d="M1064.749,728.462c-3.87,0-7.374-1.568-9.91-4.104c-2.536-2.536-4.104-6.04-4.104-9.91v-82.199V550.05
					c0-3.87,1.568-7.374,4.104-9.91c2.536-2.536,6.04-4.104,9.91-4.104c3.87,0,7.374,1.568,9.91,4.104
					c2.536,2.536,4.104,6.04,4.104,9.91v82.199v82.199c0,3.87-1.568,7.374-4.104,9.91
					C1072.123,726.894,1068.619,728.462,1064.749,728.462z"/>
			</g>
		</g>
	</g>
</g>
</svg>
